<?xml version="1.0" encoding="utf-8"?>
<!-- Generator: Adobe Illustrator 22.0.1, SVG Export Plug-In . SVG Version: 6.00 Build 0)  -->
<svg version="1.1" id="Layer_1" xmlns="http://www.w3.org/2000/svg" xmlns:xlink="http://www.w3.org/1999/xlink" x="0px" y="0px"
	 viewBox="0 0 96.4 94.2" style="enable-background:new 0 0 96.4 94.2;" xml:space="preserve">
<style type="text/css">
	.st0{fill-rule:evenodd;clip-rule:evenodd;fill:#0390BF;}
</style>
<g>
	<path class="st0" d="M47.8,7.6L47.8,7.6c3,0,5.4,2.4,5.4,5.4v20.2c0,3-2.4,5.4-5.4,5.4l0,0c-3,0-5.4-2.4-5.4-5.4V13
		C42.4,10,44.9,7.6,47.8,7.6L47.8,7.6z"/>
	<path class="st0" d="M6.8,37.4L6.8,37.4c0.9-2.8,4-4.4,6.9-3.5l19.2,6.2c2.8,0.9,4.4,4,3.5,6.9l0,0c-0.9,2.8-4,4.4-6.9,3.5
		l-19.2-6.2C7.4,43.3,5.9,40.2,6.8,37.4L6.8,37.4z"/>
	<path class="st0" d="M22.5,85.6L22.5,85.6c-2.4-1.8-3-5.2-1.2-7.6l11.9-16.3c1.8-2.4,5.2-3,7.6-1.2l0,0c2.4,1.8,3,5.2,1.2,7.6
		L30.1,84.4C28.3,86.9,24.9,87.4,22.5,85.6L22.5,85.6z"/>
	<path class="st0" d="M73.2,85.6L73.2,85.6c-2.4,1.8-5.8,1.2-7.6-1.2L53.7,68.1c-1.8-2.4-1.2-5.8,1.2-7.6l0,0
		c2.4-1.8,5.8-1.2,7.6,1.2l11.9,16.3C76.2,80.5,75.6,83.9,73.2,85.6L73.2,85.6z"/>
	<path class="st0" d="M88.9,37.4L88.9,37.4c0.9,2.8-0.6,5.9-3.5,6.9l-19.2,6.2c-2.8,0.9-5.9-0.6-6.9-3.5l0,0
		c-0.9-2.8,0.6-5.9,3.5-6.9L82,33.9C84.9,33,88,34.5,88.9,37.4L88.9,37.4z"/>
</g>
</svg>
