<?xml version="1.0" encoding="utf-8"?>
<!-- Generator: Adobe Illustrator 22.0.1, SVG Export Plug-In . SVG Version: 6.00 Build 0)  -->
<svg version="1.1" id="Слой_1" xmlns="http://www.w3.org/2000/svg" xmlns:xlink="http://www.w3.org/1999/xlink" x="0px" y="0px"
	 viewBox="0 0 100.1 18.2" style="enable-background:new 0 0 100.1 18.2;" xml:space="preserve">
<style type="text/css">
	.st0{fill:url(#SVGID_1_);}
	.st1{clip-path:url(#SVGID_3_);}
	.st2{fill:#FFFFFF;}
	.st3{fill:#419666;}
</style>
<g>
	<g>
		<linearGradient id="SVGID_1_" gradientUnits="userSpaceOnUse" x1="1.6882" y1="16.0508" x2="16.9841" y2="1.4283">
			<stop  offset="0" style="stop-color:#6EC388"/>
			<stop  offset="1" style="stop-color:#26553D"/>
		</linearGradient>
		<path class="st0" d="M16.3,17.4h-15c-0.4,0-0.8-0.3-0.8-0.8v-15C0.6,1.3,1,1,1.4,1h15c0.4,0,0.8,0.3,0.8,0.8v15
			C17.1,17.1,16.8,17.4,16.3,17.4z"/>
		<g>
			<defs>
				<path id="SVGID_2_" d="M16.3,17.4h-15c-0.4,0-0.8-0.3-0.8-0.8v-15C0.6,1.3,1,1,1.4,1h15c0.4,0,0.8,0.3,0.8,0.8v15
					C17.1,17.1,16.8,17.4,16.3,17.4z"/>
			</defs>
			<clipPath id="SVGID_3_">
				<use xlink:href="#SVGID_2_"  style="overflow:visible;"/>
			</clipPath>
			<g class="st1">
				<g>
					
						<rect x="12.1" y="4" transform="matrix(0.7055 -0.7088 0.7088 0.7055 -3.4781 12.8285)" class="st2" width="3.2" height="13.1"/>
				</g>
				<g>
					<g>
						<polygon class="st2" points="7.7,9.1 7.3,4.2 12.2,4.6 						"/>
					</g>
				</g>
			</g>
			<g class="st1">
				<g>
					
						<rect x="2.4" y="1.4" transform="matrix(0.7054 -0.7088 0.7088 0.7054 -4.5161 5.1701)" class="st2" width="3.2" height="13.2"/>
				</g>
				<g>
					<g>
						<polygon class="st2" points="10,9.5 10.4,14.5 5.5,14 						"/>
					</g>
				</g>
			</g>
		</g>
	</g>
	<g>
		<path class="st3" d="M31,1l0.2,3.2h-0.3c-0.8-2.2-1.6-2.9-3.5-2.9h-0.4v5h0.7c1,0,1.7-0.8,1.9-2h0.2v4.6h-0.3
			c-0.3-1.6-0.9-2.1-1.9-2.1h-0.7v4.7h1.9v0.3H23v-0.3h0.9V1.4H23V1H31z"/>
		<path class="st3" d="M37.6,0.8c3.3,0,5,2,5,5.5c0,3.4-1.6,5.6-5.1,5.6c-3.4,0-5-2-5-5.4C32.4,3,34.2,0.8,37.6,0.8z M39.4,5.9
			c0-3.2-0.1-4.7-1.9-4.7c-1.9,0-2,1.6-2,4.8v1.1c0,2.9,0.2,4.6,2,4.6c1.7,0,1.9-1.5,1.9-4.6V5.9z"/>
		<path class="st3" d="M49,0.8c3.3,0,5,2,5,5.5c0,3.4-1.6,5.6-5.1,5.6c-3.4,0-5-2-5-5.4C43.8,3,45.6,0.8,49,0.8z M50.8,5.9
			c0-3.2-0.1-4.7-1.9-4.7c-1.9,0-2,1.6-2,4.8v1.1c0,2.9,0.2,4.6,2,4.6c1.7,0,1.9-1.5,1.9-4.6V5.9z"/>
		<path class="st3" d="M59.3,11.8h-4.3v-0.3h1V1.3h-1V1h4.7c3.8,0,5.9,1.4,5.9,5.2C65.6,10.6,62.9,11.8,59.3,11.8z M59.5,11.5
			c2.1,0,2.9-1.3,2.9-4.8V5.8c0-3.7-0.9-4.5-3.1-4.5h-0.4v10.2H59.5z"/>
		<path class="st3" d="M74.8,1v0.3h-1.6v10.1h0.6c1.9,0,2.7-1.4,3.6-3.3h0.3l-0.3,3.6h-8.1v-0.3h0.9V1.4h-0.9V1H74.8z"/>
		<path class="st3" d="M87.9,4.9h-0.3c-0.8-2.5-1.3-3.5-2.7-3.5h-0.2v10.2h1.3v0.3h-5.6v-0.3h1.3V1.3h-0.2c-1.4,0-1.9,1.2-2.7,3.5
			h-0.3L78.8,1h9L87.9,4.9z"/>
		<path class="st3" d="M93.1,11.8h-4.3v-0.3h1V1.3h-1V1h4.7c3.8,0,5.9,1.4,5.9,5.2C99.4,10.6,96.8,11.8,93.1,11.8z M93.4,11.5
			c2.1,0,2.9-1.3,2.9-4.8V5.8c0-3.7-0.9-4.5-3.1-4.5h-0.4v10.2H93.4z"/>
	</g>
	<g>
		<path d="M25.2,17.5c-0.4,0-0.7-0.1-0.9-0.3c-0.2-0.2-0.3-0.5-0.3-0.9v-2.1h0.5v2.2c0,0.2,0.1,0.4,0.2,0.6c0.1,0.1,0.3,0.2,0.6,0.2
			c0.2,0,0.4-0.1,0.6-0.2c0.1-0.1,0.2-0.3,0.2-0.6v-2.2h0.5v2.1c0,0.4-0.1,0.7-0.3,0.9C25.9,17.4,25.6,17.5,25.2,17.5z"/>
		<path d="M36.2,17.4v-3.3h0.5v3.3H36.2z M36.6,16.7l0.1-0.7l1.6-1.9h0.6L36.6,16.7z M38.4,17.4l-1.1-1.8l0.4-0.3l1.3,2.1H38.4z"/>
		<path d="M48.4,17.4v-3.3h0.5v3.3H48.4z M48.6,16v-0.4h1.3c0.1,0,0.2,0,0.3-0.1c0.1-0.1,0.1-0.2,0.1-0.4c0-0.2,0-0.3-0.1-0.4
			c-0.1-0.1-0.2-0.1-0.3-0.1h-1.3v-0.4h1.3c0.2,0,0.4,0,0.5,0.1c0.1,0.1,0.3,0.2,0.3,0.3c0.1,0.1,0.1,0.3,0.1,0.5
			c0,0.2,0,0.4-0.1,0.5c-0.1,0.1-0.2,0.3-0.3,0.3C50.3,16,50.1,16,49.9,16H48.6z M50.4,17.4l-0.8-1.5l0.5-0.1l0.9,1.6H50.4z"/>
		<path d="M60.3,17.4l1.3-3.3H62l1.3,3.3h-0.5l-1-2.7l-1,2.7H60.3z M60.9,16.7v-0.4h1.9v0.4H60.9z"/>
		<path d="M73.3,14.1v3.3h-0.5v-3.3H73.3z"/>
		<path d="M83.1,17.4v-3.3h0.5l1.7,2.6l-0.1,0.1v-2.6h0.5v3.3h-0.5l-1.7-2.5l0.1-0.1v2.6H83.1z"/>
		<path d="M95.6,17.4v-3.3h0.5v3.3H95.6z M95.8,14.5v-0.4h2v0.4H95.8z M95.8,16v-0.4h1.8V16H95.8z M95.8,17.4V17h2v0.4H95.8z"/>
	</g>
</g>
</svg>
