<?xml version="1.0" encoding="utf-8"?>
<!-- Generator: Adobe Illustrator 22.0.1, SVG Export Plug-In . SVG Version: 6.00 Build 0)  -->
<svg version="1.1" id="Layer_1" xmlns="http://www.w3.org/2000/svg" xmlns:xlink="http://www.w3.org/1999/xlink" x="0px" y="0px"
	 viewBox="0 0 165 165.1" style="enable-background:new 0 0 165 165.1;" xml:space="preserve">
<style type="text/css">
	.st0{fill:#FF0000;}
	.st1{fill:#FFFFFF;}
</style>
<g>
	<polygon class="st0" points="164.1,164.2 0.9,164.2 0.9,1 164.1,1 164.1,164.2 	"/>
	<polygon class="st1" points="18.9,63.2 36,63.2 41.7,86.3 41.7,86.3 47.4,63.2 64.5,63.2 64.5,102.4 53.1,102.4 53.1,77.3 53,77.3 
		46.2,102.4 37.2,102.4 30.4,77.3 30.3,77.3 30.3,102.4 18.9,102.4 18.9,63.2 	"/>
	<polygon class="st1" points="82.1,73.3 71.1,73.3 71.1,63.2 105.2,63.2 105.2,73.3 94.2,73.3 94.2,102.4 82.1,102.4 82.1,73.3 	"/>
	<path class="st1" d="M134.3,77.8c-0.2-1.4-1.3-5.8-6.3-5.8c-5.7,0-7.5,5.5-7.5,10.8c0,5.3,1.8,10.8,7.5,10.8c4,0,5.6-2.9,6.4-6.5
		h11.9c0,7.9-6.4,16.3-17.9,16.3c-12.7,0-19.9-8.9-19.9-20.5c0-12.4,7.8-20.5,19.9-20.5c10.8,0,16.7,5.7,17.7,15.5H134.3L134.3,77.8
		z"/>
</g>
</svg>
